# xmcd
#
# Track frame offsets: 
#        150
#        12922
#        22716
#        33322
#        46597
#        56818
#        66273
#        76237
#        89192
#        99567
#        109842
#        120492
#        130846
#        141925
#
# Disc length: 2030 seconds
#
# Revision: 1
# Processed by: cddbd v1.5.2PL0 Copyright (c) Steve Scherf et al.
# Submitted via: ExactAudioCopy v0.99pb5
#
DISCID=b407ec0e
DTITLE=Waylon Jennings - Love Of The Common People
DYEAR=1999
DGENRE=
TTITLE0=Mony Cannot Make The Man
TTITLE1=Young Widow Brown
TTITLE2=You´ve Got To Hide Your Love Away
TTITLE3=Love Of The Common People
TTITLE4=I Tremble For You
TTITLE5=Destiny´s Child
TTITLE6=Ruby,Don`t Your Love To Town
TTITLE7=THe Road
TTITLE8=If The Shoe Fiits
TTITLE9=Don´t Waste Your Time
TTITLE10=Taos,New Mixico
TTITLE11=Two Streaks Of Steel
TTITLE12=The Chokin´ Kind
TTITLE13=Walk On OutOf My Mind
EXTD=
EXTT0=
EXTT1=
EXTT2=
EXTT3=
EXTT4=
EXTT5=
EXTT6=
EXTT7=
EXTT8=
EXTT9=
EXTT10=
EXTT11=
EXTT12=
EXTT13=
PLAYORDER=
